{
  "asset": {
    "generator": "Khronos glTF Blender I/O v1.2.75",
    "version": "2.0"
  },
  "buffers": [
    {
      "uri": "CornellBox-GlassSphere.bin",
      "byteLength": 42740
    }
  ],
  "bufferViews": [
    {
      "buffer": 0,
      "byteOffset": 0,
      "byteLength": 48,
      "byteStride": 12,
      "target": 34962
    },
    {
      "buffer": 0,
      "byteOffset": 48,
      "byteLength": 48,
      "byteStride": 12,
      "target": 34962
    },
    {
      "buffer": 0,
      "byteOffset": 96,
      "byteLength": 12,
      "target": 34963
    },
    {
      "buffer": 0,
      "byteOffset": 108,
      "byteLength": 48,
      "byteStride": 12,
      "target": 34962
    },
    {
      "buffer": 0,
      "byteOffset": 156,
      "byteLength": 48,
      "byteStride": 12,
      "target": 34962
    },
    {
      "buffer": 0,
      "byteOffset": 204,
      "byteLength": 12,
      "target": 34963
    },
    {
      "buffer": 0,
      "byteOffset": 216,
      "byteLength": 48,
      "byteStride": 12,
      "target": 34962
    },
    {
      "buffer": 0,
      "byteOffset": 264,
      "byteLength": 48,
      "byteStride": 12,
      "target": 34962
    },
    {
      "buffer": 0,
      "byteOffset": 312,
      "byteLength": 12,
      "target": 34963
    },
    {
      "buffer": 0,
      "byteOffset": 324,
      "byteLength": 48,
      "byteStride": 12,
      "target": 34962
    },
    {
      "buffer": 0,
      "byteOffset": 372,
      "byteLength": 48,
      "byteStride": 12,
      "target": 34962
    },
    {
      "buffer": 0,
      "byteOffset": 420,
      "byteLength": 12,
      "target": 34963
    },
    {
      "buffer": 0,
      "byteOffset": 432,
      "byteLength": 48,
      "byteStride": 12,
      "target": 34962
    },
    {
      "buffer": 0,
      "byteOffset": 480,
      "byteLength": 48,
      "byteStride": 12,
      "target": 34962
    },
    {
      "buffer": 0,
      "byteOffset": 528,
      "byteLength": 12,
      "target": 34963
    },
    {
      "buffer": 0,
      "byteOffset": 540,
      "byteLength": 240,
      "byteStride": 12,
      "target": 34962
    },
    {
      "buffer": 0,
      "byteOffset": 780,
      "byteLength": 240,
      "byteStride": 12,
      "target": 34962
    },
    {
      "buffer": 0,
      "byteOffset": 1020,
      "byteLength": 60,
      "target": 34963
    },
    {
      "buffer": 0,
      "byteOffset": 1080,
      "byteLength": 48,
      "byteStride": 12,
      "target": 34962
    },
    {
      "buffer": 0,
      "byteOffset": 1128,
      "byteLength": 48,
      "byteStride": 12,
      "target": 34962
    },
    {
      "buffer": 0,
      "byteOffset": 1176,
      "byteLength": 12,
      "target": 34963
    },
    {
      "buffer": 0,
      "byteOffset": 1188,
      "byteLength": 30752,
      "byteStride": 32,
      "target": 34962
    },
    {
      "buffer": 0,
      "byteOffset": 31940,
      "byteLength": 10800,
      "target": 34963
    }
  ],
  "accessors": [
    {
      "bufferView": 0,
      "byteOffset": 0,
      "componentType": 5126,
      "normalized": false,
      "count": 4,
      "min": [
        -1.0099999904632568,
        -1.0399999618530273,
        0
      ],
      "max": [
        1,
        0.9900000095367432,
        0
      ],
      "type": "VEC3"
    },
    {
      "bufferView": 1,
      "byteOffset": 0,
      "componentType": 5126,
      "normalized": false,
      "count": 4,
      "min": [
        0,
        0,
        -1
      ],
      "max": [
        0,
        0,
        -1
      ],
      "type": "VEC3"
    },
    {
      "bufferView": 2,
      "byteOffset": 0,
      "componentType": 5123,
      "normalized": false,
      "count": 6,
      "min": [
        0
      ],
      "max": [
        3
      ],
      "type": "SCALAR"
    },
    {
      "bufferView": 3,
      "byteOffset": 0,
      "componentType": 5126,
      "normalized": false,
      "count": 4,
      "min": [
        -1.0199999809265137,
        -1.0399999618530273,
        -1.9900000095367432
      ],
      "max": [
        1,
        0.9900000095367432,
        -1.9900000095367432
      ],
      "type": "VEC3"
    },
    {
      "bufferView": 4,
      "byteOffset": 0,
      "componentType": 5126,
      "normalized": false,
      "count": 4,
      "min": [
        0,
        0,
        1
      ],
      "max": [
        0,
        0,
        1
      ],
      "type": "VEC3"
    },
    {
      "bufferView": 5,
      "byteOffset": 0,
      "componentType": 5123,
      "normalized": false,
      "count": 6,
      "min": [
        0
      ],
      "max": [
        3
      ],
      "type": "SCALAR"
    },
    {
      "bufferView": 6,
      "byteOffset": 0,
      "componentType": 5126,
      "normalized": false,
      "count": 4,
      "min": [
        -1.0199999809265137,
        -1.0399999618530273,
        -1.9900000095367432
      ],
      "max": [
        1,
        -1.0399999618530273,
        0
      ],
      "type": "VEC3"
    },
    {
      "bufferView": 7,
      "byteOffset": 0,
      "componentType": 5126,
      "normalized": false,
      "count": 4,
      "min": [
        0,
        1,
        0
      ],
      "max": [
        0,
        1,
        0
      ],
      "type": "VEC3"
    },
    {
      "bufferView": 8,
      "byteOffset": 0,
      "componentType": 5123,
      "normalized": false,
      "count": 6,
      "min": [
        0
      ],
      "max": [
        3
      ],
      "type": "SCALAR"
    },
    {
      "bufferView": 9,
      "byteOffset": 0,
      "componentType": 5126,
      "normalized": false,
      "count": 4,
      "min": [
        1,
        -1.0399999618530273,
        -1.9900000095367432
      ],
      "max": [
        1,
        0.9900000095367432,
        0
      ],
      "type": "VEC3"
    },
    {
      "bufferView": 10,
      "byteOffset": 0,
      "componentType": 5126,
      "normalized": false,
      "count": 4,
      "min": [
        -1,
        0,
        0
      ],
      "max": [
        -1,
        0,
        0
      ],
      "type": "VEC3"
    },
    {
      "bufferView": 11,
      "byteOffset": 0,
      "componentType": 5123,
      "normalized": false,
      "count": 6,
      "min": [
        0
      ],
      "max": [
        3
      ],
      "type": "SCALAR"
    },
    {
      "bufferView": 12,
      "byteOffset": 0,
      "componentType": 5126,
      "normalized": false,
      "count": 4,
      "min": [
        -1.0199999809265137,
        -1.0399999618530273,
        -1.9900000095367432
      ],
      "max": [
        -0.9900000095367432,
        0.9900000095367432,
        0
      ],
      "type": "VEC3"
    },
    {
      "bufferView": 13,
      "byteOffset": 0,
      "componentType": 5126,
      "normalized": false,
      "count": 4,
      "min": [
        0.9999372959136963,
        0.004925795365124941,
        -0.010049611330032349
      ],
      "max": [
        0.9999372959136963,
        0.004925795365124941,
        -0.010049611330032349
      ],
      "type": "VEC3"
    },
    {
      "bufferView": 14,
      "byteOffset": 0,
      "componentType": 5123,
      "normalized": false,
      "count": 6,
      "min": [
        0
      ],
      "max": [
        3
      ],
      "type": "SCALAR"
    },
    {
      "bufferView": 15,
      "byteOffset": 0,
      "componentType": 5126,
      "normalized": false,
      "count": 20,
      "min": [
        -0.7099999785423279,
        -0.6700000166893005,
        -1.2000000476837158
      ],
      "max": [
        0.03999999910593033,
        0.09000000357627869,
        0
      ],
      "type": "VEC3"
    },
    {
      "bufferView": 16,
      "byteOffset": 0,
      "componentType": 5126,
      "normalized": false,
      "count": 20,
      "min": [
        -0.9550641775131226,
        -0.9535826444625854,
        -1
      ],
      "max": [
        0.9550641775131226,
        0.9535826444625854,
        0
      ],
      "type": "VEC3"
    },
    {
      "bufferView": 17,
      "byteOffset": 0,
      "componentType": 5123,
      "normalized": false,
      "count": 30,
      "min": [
        0
      ],
      "max": [
        19
      ],
      "type": "SCALAR"
    },
    {
      "bufferView": 18,
      "byteOffset": 0,
      "componentType": 5126,
      "normalized": false,
      "count": 4,
      "min": [
        -0.23999999463558197,
        -0.2199999988079071,
        -1.9800000190734863
      ],
      "max": [
        0.23000000417232513,
        0.1599999964237213,
        -1.9800000190734863
      ],
      "type": "VEC3"
    },
    {
      "bufferView": 19,
      "byteOffset": 0,
      "componentType": 5126,
      "normalized": false,
      "count": 4,
      "min": [
        0,
        0,
        1
      ],
      "max": [
        0,
        0,
        1
      ],
      "type": "VEC3"
    },
    {
      "bufferView": 20,
      "byteOffset": 0,
      "componentType": 5123,
      "normalized": false,
      "count": 6,
      "min": [
        0
      ],
      "max": [
        3
      ],
      "type": "SCALAR"
    },
    {
      "bufferView": 21,
      "byteOffset": 0,
      "componentType": 5126,
      "normalized": false,
      "count": 961,
      "min": [
        -1,
        -1,
        -0.9945219159126282
      ],
      "max": [
        1,
        1,
        0.9945219159126282
      ],
      "type": "VEC3"
    },
    {
      "bufferView": 21,
      "byteOffset": 12,
      "componentType": 5126,
      "normalized": false,
      "count": 961,
      "min": [
        -1,
        -1,
        -0.9945219159126282
      ],
      "max": [
        1,
        1,
        0.9945219159126282
      ],
      "type": "VEC3"
    },
    {
      "bufferView": 21,
      "byteOffset": 24,
      "componentType": 5126,
      "normalized": false,
      "count": 961,
      "min": [
        0,
        0
      ],
      "max": [
        1,
        1
      ],
      "type": "VEC2"
    },
    {
      "bufferView": 22,
      "byteOffset": 0,
      "componentType": 5123,
      "normalized": false,
      "count": 5400,
      "min": [
        0
      ],
      "max": [
        960
      ],
      "type": "SCALAR"
    }
  ],
  "scene": 0,
  "scenes": [
    {
      "nodes": [
        0,
        1
      ],
      "name": "CornellBox-GlassSphere"
    }
  ],
  "nodes": [
    {
      "name": "CornellBox-Original",
      "matrix": [
        1,
        0,
        0,
        0,
        0,
        -1.3435884227419592e-7,
        0.9999998807907104,
        0,
        0,
        -0.9999998807907104,
        -1.3435884227419592e-7,
        0,
        0,
        0,
        0,
        1
      ],
      "mesh": 0
    },
    {
      "name": "Sphere",
      "matrix": [
        0.4000000059604645,
        0,
        0,
        0,
        0,
        0.4000000059604645,
        0,
        0,
        0,
        0,
        0.4000000059604645,
        0,
        0.478365421295166,
        0.5377308130264282,
        0.14848558604717255,
        1
      ],
      "mesh": 1
    }
  ],
  "meshes": [
    {
      "primitives": [
        {
          "material": 0,
          "mode": 4,
          "attributes": {
            "POSITION": 0,
            "NORMAL": 1
          },
          "indices": 2
        },
        {
          "material": 1,
          "mode": 4,
          "attributes": {
            "POSITION": 3,
            "NORMAL": 4
          },
          "indices": 5
        },
        {
          "material": 2,
          "mode": 4,
          "attributes": {
            "POSITION": 6,
            "NORMAL": 7
          },
          "indices": 8
        },
        {
          "material": 3,
          "mode": 4,
          "attributes": {
            "POSITION": 9,
            "NORMAL": 10
          },
          "indices": 11
        },
        {
          "material": 4,
          "mode": 4,
          "attributes": {
            "POSITION": 12,
            "NORMAL": 13
          },
          "indices": 14
        },
        {
          "material": 5,
          "mode": 4,
          "attributes": {
            "POSITION": 15,
            "NORMAL": 16
          },
          "indices": 17
        },
        {
          "material": 6,
          "mode": 4,
          "attributes": {
            "POSITION": 18,
            "NORMAL": 19
          },
          "indices": 20
        }
      ]
    },
    {
      "primitives": [
        {
          "material": 7,
          "mode": 4,
          "attributes": {
            "POSITION": 21,
            "NORMAL": 22,
            "TEXCOORD_0": 23
          },
          "indices": 24
        }
      ]
    }
  ],
  "materials": [
    {
      "name": "floor",
      "pbrMetallicRoughness": {
        "baseColorFactor": [
          0.7254901960784313,
          0.7098039215686275,
          0.6784313725490196,
          1
        ],
        "metallicFactor": 0,
        "roughnessFactor": 0.8945907354354858
      },
      "emissiveFactor": [
        0,
        0,
        0
      ],
      "alphaMode": "OPAQUE",
      "doubleSided": true
    },
    {
      "name": "ceiling",
      "pbrMetallicRoughness": {
        "baseColorFactor": [
          0.7254901960784313,
          0.7098039215686275,
          0.6784313725490196,
          1
        ],
        "metallicFactor": 0,
        "roughnessFactor": 0.8945907354354858
      },
      "emissiveFactor": [
        0,
        0,
        0
      ],
      "alphaMode": "OPAQUE",
      "doubleSided": true
    },
    {
      "name": "backWall",
      "pbrMetallicRoughness": {
        "baseColorFactor": [
          0.7254901960784313,
          0.7098039215686275,
          0.6784313725490196,
          1
        ],
        "metallicFactor": 0,
        "roughnessFactor": 0.8945907354354858
      },
      "emissiveFactor": [
        0,
        0,
        0
      ],
      "alphaMode": "OPAQUE",
      "doubleSided": true
    },
    {
      "name": "rightWall",
      "pbrMetallicRoughness": {
        "baseColorFactor": [
          0.12549019607843137,
          0.2901960784313726,
          0.7568627450980392,
          1
        ],
        "metallicFactor": 0,
        "roughnessFactor": 0.8945907354354858
      },
      "emissiveFactor": [
        0,
        0,
        0
      ],
      "alphaMode": "OPAQUE",
      "doubleSided": true
    },
    {
      "name": "leftWall",
      "pbrMetallicRoughness": {
        "baseColorFactor": [
          0.6313725490196078,
          0.06666666666666667,
          0.050980392156862744,
          1
        ],
        "metallicFactor": 0,
        "roughnessFactor": 0.8945907354354858
      },
      "emissiveFactor": [
        0,
        0,
        0
      ],
      "alphaMode": "OPAQUE",
      "doubleSided": true
    },
    {
      "name": "tallBox",
      "pbrMetallicRoughness": {
        "baseColorFactor": [
          1,
          1,
          1,
          1
        ],
        "metallicFactor": 0,
        "roughnessFactor": 0.8945907354354858
      },
      "emissiveFactor": [
        0,
        0,
        0
      ],
      "alphaMode": "OPAQUE",
      "doubleSided": true
    },
    {
      "name": "Light",
      "pbrMetallicRoughness": {
        "baseColorFactor": [
          1,
          1,
          1,
          1
        ],
        "metallicFactor": 0,
        "roughnessFactor": 0.8945907354354858
      },
      "emissiveFactor": [
        10,
        10,
        10
      ],
      "alphaMode": "OPAQUE",
      "doubleSided": true
    },
    {
      "name": "glass_sphere",
      "pbrMetallicRoughness": {
        "baseColorFactor": [
          1,
          1,
          1,
          1
        ],
        "metallicFactor": 0,
        "roughnessFactor": 0
      },
      "emissiveFactor": [
        0,
        0,
        0
      ],
      "alphaMode": "OPAQUE",
      "doubleSided": false,
      "extensions": {
        "KHR_materials_transmission": {
          "transmissionFactor": 1
        },
        "KHR_materials_volume": {
          "thicknessFactor": 10,
          "attenuationColor": [
            1,
            1,
            1
          ],
          "attenuationDistance": 0
        }
      }
    }
  ],
  "extensionsUsed": [
    "KHR_materials_transmission",
    "KHR_materials_volume"
  ]
}